<svg width="44" height="41" viewBox="0 0 44 41" fill="none" xmlns="http://www.w3.org/2000/svg">
<path d="M13.4217 1.69548L9.22797 9.70397C8.95716 10.221 9.13548 10.8675 9.62901 11.1582L16.1956 15.0263C16.696 15.321 17.3321 15.1398 17.6166 14.6213L25.6432 0.000579834H16.1699C15.0233 0.000579834 13.9685 0.650985 13.4217 1.69548Z" fill="#29A361"/>
<path d="M25.6431 0L17.6169 14.6209C17.3318 15.1392 16.6961 15.3209 16.1959 15.0264L14.4819 14.0171C14.8998 14.0869 15.3345 13.8879 15.5558 13.4842L22.9598 0H25.6431Z" fill="#248F55"/>
<path d="M34.4257 7.75432L31.5333 1.78659C31.0026 0.691686 29.9213 0.000579834 28.7391 0.000579834H20.376L26.7971 11.2903C26.7761 11.3001 26.7549 11.3099 26.7338 11.3197C26.3299 11.5081 26.3464 12.1086 26.76 12.2731L32.3046 14.4797C32.5616 14.582 32.8499 14.449 32.9485 14.1828L35.0859 8.41461C35.2439 7.98793 34.829 7.5762 34.4257 7.75432Z" fill="#34CB79"/>
<path d="M35.0859 8.41413L32.9478 14.1823C32.8497 14.4492 32.5609 14.5823 32.3042 14.4796L30.6266 13.8116L32.6265 8.41413C32.7402 8.10802 32.5586 7.80994 32.2981 7.73175C32.05 7.6572 31.8381 7.48879 31.7222 7.24958L29.0738 1.78637C28.5434 0.691818 27.4625 0 26.2798 0H28.7391C29.921 0 31.0019 0.691818 31.5331 1.78637L34.4254 7.75454C34.8292 7.57652 35.2436 7.98753 35.0859 8.41413Z" fill="#2FB86E"/>
<path d="M28.8378 30.7629C28.7599 30.4315 28.3474 30.2896 28.0956 30.5504L23.762 35.0415C23.5891 35.2207 23.5891 35.5111 23.762 35.6902L28.1123 40.1985C28.3624 40.4576 28.7707 40.3193 28.8528 39.9936H35.2503C36.4281 39.9936 37.506 39.3077 38.0389 38.2192L41.6893 30.7628H28.8378V30.7629Z" fill="#29A361"/>
<path d="M34.2384 30.763L36.3127 34.0158C36.7817 34.7512 36.8336 35.6909 36.4486 36.477L35.5955 38.2193C35.0635 39.3075 33.9851 39.9938 32.8076 39.9938H35.2503C36.4277 39.9938 37.506 39.3075 38.0391 38.2193L41.6892 30.7631H34.2384V30.763Z" fill="#248F55"/>
<path d="M20.1075 39.1363V31.1995C20.1075 30.603 19.6409 30.1193 19.0652 30.1193H1.89551L6.3141 38.526C6.86178 39.5681 7.91513 40.2165 9.06008 40.2165H19.0652C19.6408 40.2165 20.1075 39.733 20.1075 39.1363Z" fill="#29A361"/>
<path d="M9.17721 30.12L5.36414 36.7194L1.89551 30.12H9.17721Z" fill="#248F55"/>
<path d="M20.1074 31.1997V39.1368C20.1074 39.7332 19.6408 40.2166 19.0654 40.2166H16.3306C16.9061 40.2166 17.3726 39.7332 17.3726 39.1368V31.1997C17.3726 30.6033 16.9061 30.1198 16.3306 30.1198H19.0654C19.6408 30.1198 20.1074 30.6033 20.1074 31.1997Z" fill="#248F55"/>
<path d="M11.7194 23.1062L10.9484 17.0929C10.9102 16.7958 10.647 16.5871 10.3603 16.6265L4.53555 17.4286C4.09692 17.489 3.93346 18.0419 4.2339 18.3496L0.557815 23.8405C-0.116197 24.8473 -0.184603 26.1618 0.380955 27.2378L4.38128 34.8489L10.8767 23.605C10.879 23.6067 10.8812 23.6085 10.8836 23.6104C11.2543 23.902 11.7806 23.5843 11.7194 23.1062Z" fill="#34CB79"/>
<path d="M10.8832 23.6104C10.8813 23.6084 10.8788 23.6067 10.8769 23.6049L4.38131 34.8485L3.04541 32.307L8.33232 23.1539L8.47892 22.9C8.5591 22.7612 8.71577 22.7012 8.86899 22.732C8.86977 22.7322 8.87054 22.7323 8.87132 22.7325C9.19732 22.7927 9.53163 22.5113 9.48158 22.125L8.80429 16.8404L10.3598 16.6266C10.6467 16.5872 10.9105 16.7964 10.9485 17.0926L11.7196 23.1068C11.7809 23.5846 11.2541 23.9021 10.8832 23.6104Z" fill="#2FB86E"/>
<path d="M43.4468 23.4273L38.4183 15.8765C38.1099 15.4133 37.5098 15.2731 37.0395 15.5545L30.4864 19.4733C29.9663 19.7844 29.8067 20.4853 30.1378 21.0045L39.3758 35.4891L43.6619 26.7341C44.1806 25.6744 44.0981 24.4054 43.4468 23.4273Z" fill="#34CB79"/>
<path d="M43.6615 26.7343L39.3748 35.4888L37.9371 33.2336L41.1189 26.7342C41.6377 25.6745 41.5554 24.4057 40.9038 23.4276L36.0532 16.1447L37.0394 15.5547C37.5095 15.273 38.1098 15.4134 38.4179 15.8768L43.4465 23.4277C44.0979 24.4058 44.1803 25.6746 43.6615 26.7343Z" fill="#2FB86E"/>
</svg>
